<mxfile host="app.diagrams.net" agent="Mozilla/5.0 (Windows NT 10.0; Win64; x64) AppleWebKit/537.36 (KHTML, like Gecko) Chrome/135.0.0.0 Safari/537.36" version="26.2.10">
  <diagram id="l8hXMBHkgcEJcSW0mbfh" name="Page-1">
    <mxGraphModel dx="2068" dy="1137" grid="1" gridSize="10" guides="1" tooltips="1" connect="1" arrows="1" fold="1" page="1" pageScale="1" pageWidth="1169" pageHeight="827" math="0" shadow="0">
      <root>
        <mxCell id="0" />
        <mxCell id="1" parent="0" />
        <mxCell id="07V0SJCuCP9WHB_aUPou-1" value="DC01 -dc01.sam.llc&lt;div&gt;Global Catalog&lt;/div&gt;" style="image;aspect=fixed;perimeter=ellipsePerimeter;html=1;align=center;shadow=0;dashed=0;spacingTop=3;image=img/lib/active_directory/domain_controller.svg;" parent="1" vertex="1">
          <mxGeometry x="568.5" y="40" width="63" height="90" as="geometry" />
        </mxCell>
        <mxCell id="Dyzul8AylmX92G376tSa-2" value="" style="rounded=1;whiteSpace=wrap;html=1;fillColor=none;strokeColor=#6c8ebf;dashed=1;dashPattern=12 12;strokeWidth=3;" vertex="1" parent="1">
          <mxGeometry x="130" y="190" width="920" height="540" as="geometry" />
        </mxCell>
        <mxCell id="Dyzul8AylmX92G376tSa-12" value="" style="edgeStyle=orthogonalEdgeStyle;rounded=0;orthogonalLoop=1;jettySize=auto;html=1;" edge="1" parent="1" source="Dyzul8AylmX92G376tSa-7" target="Dyzul8AylmX92G376tSa-10">
          <mxGeometry relative="1" as="geometry" />
        </mxCell>
        <mxCell id="Dyzul8AylmX92G376tSa-7" value="WS01" style="image;aspect=fixed;perimeter=ellipsePerimeter;html=1;align=center;shadow=0;dashed=0;spacingTop=3;image=img/lib/active_directory/workstation_client.svg;" vertex="1" parent="1">
          <mxGeometry x="180" y="220" width="59.5" height="70" as="geometry" />
        </mxCell>
        <mxCell id="Dyzul8AylmX92G376tSa-8" value="WS04" style="image;aspect=fixed;perimeter=ellipsePerimeter;html=1;align=center;shadow=0;dashed=0;spacingTop=3;image=img/lib/active_directory/workstation_client.svg;" vertex="1" parent="1">
          <mxGeometry x="180" y="520" width="59.5" height="70" as="geometry" />
        </mxCell>
        <mxCell id="Dyzul8AylmX92G376tSa-9" value="WS03" style="image;aspect=fixed;perimeter=ellipsePerimeter;html=1;align=center;shadow=0;dashed=0;spacingTop=3;image=img/lib/active_directory/workstation_client.svg;" vertex="1" parent="1">
          <mxGeometry x="180" y="420" width="59.5" height="70" as="geometry" />
        </mxCell>
        <mxCell id="Dyzul8AylmX92G376tSa-10" value="WS02" style="image;aspect=fixed;perimeter=ellipsePerimeter;html=1;align=center;shadow=0;dashed=0;spacingTop=3;image=img/lib/active_directory/workstation_client.svg;" vertex="1" parent="1">
          <mxGeometry x="180" y="321" width="59.5" height="70" as="geometry" />
        </mxCell>
        <mxCell id="Dyzul8AylmX92G376tSa-11" value="WS05" style="image;aspect=fixed;perimeter=ellipsePerimeter;html=1;align=center;shadow=0;dashed=0;spacingTop=3;image=img/lib/active_directory/workstation_client.svg;" vertex="1" parent="1">
          <mxGeometry x="180" y="620" width="59.5" height="70" as="geometry" />
        </mxCell>
        <mxCell id="Dyzul8AylmX92G376tSa-13" value="" style="image;aspect=fixed;perimeter=ellipsePerimeter;html=1;align=center;shadow=0;dashed=0;spacingTop=3;image=img/lib/active_directory/web_server.svg;" vertex="1" parent="1">
          <mxGeometry x="350" y="240" width="72" height="90" as="geometry" />
        </mxCell>
        <mxCell id="Dyzul8AylmX92G376tSa-16" value="" style="image;aspect=fixed;perimeter=ellipsePerimeter;html=1;align=center;shadow=0;dashed=0;spacingTop=3;image=img/lib/active_directory/generic_server.svg;" vertex="1" parent="1">
          <mxGeometry x="349.6" y="490" width="50.4" height="90" as="geometry" />
        </mxCell>
        <mxCell id="Dyzul8AylmX92G376tSa-15" value="" style="shadow=0;dashed=0;html=1;strokeColor=none;fillColor=#EF8F21;labelPosition=center;verticalLabelPosition=bottom;verticalAlign=top;align=center;outlineConnect=0;shape=mxgraph.veeam.linux;" vertex="1" parent="1">
          <mxGeometry x="377.2" y="532.6" width="44.8" height="44.8" as="geometry" />
        </mxCell>
      </root>
    </mxGraphModel>
  </diagram>
</mxfile>
